HIERARCHY
ROOT RootJoint
{
    OFFSET   0.000000   0.000000   0.000000
    CHANNELS 6 Xposition Yposition Zposition Xrotation Yrotation Zrotation
    JOINT pelvis_lowerback
    {
        OFFSET   0.000000   0.093605   0.000000
        CHANNELS 3 Xrotation Yrotation Zrotation
        JOINT lowerback_torso
        {
            OFFSET   0.000000   0.100000   0.000000
            CHANNELS 3 Xrotation Yrotation Zrotation
            JOINT torso_head
            {
                OFFSET   0.000000   0.282350   0.000000
                CHANNELS 3 Xrotation Yrotation Zrotation
                End Site
                {
                    OFFSET   0.000000   0.192650   0.000000
                }
            }
            JOINT rTorso_Clavicle
            {
                OFFSET  -0.001000   0.157500   0.000000
                CHANNELS 3 Xrotation Yrotation Zrotation
                JOINT rShoulder
                {
                    OFFSET  -0.117647   0.000000   0.000000
                    CHANNELS 3 Xrotation Yrotation Zrotation
                    JOINT rElbow
                    {
                        OFFSET  -0.245000   0.000000   0.000000
                        CHANNELS 3 Xrotation Yrotation Zrotation
                        JOINT rWrist
                        {
                            OFFSET  -0.240000   0.000000   0.000000
                            CHANNELS 3 Xrotation Yrotation Zrotation
                            End Site
                            {
                                OFFSET  -0.116353  -0.002500   0.000000
                            }
                        }
                    }
                }
            }
            JOINT lTorso_Clavicle
            {
                OFFSET   0.001000   0.157500   0.000000
                CHANNELS 3 Xrotation Yrotation Zrotation
                JOINT lShoulder
                {
                    OFFSET   0.117647   0.000000   0.000000
                    CHANNELS 3 Xrotation Yrotation Zrotation
                    JOINT lElbow
                    {
                        OFFSET   0.245000   0.000000   0.000000
                        CHANNELS 3 Xrotation Yrotation Zrotation
                        JOINT lWrist
                        {
                            OFFSET   0.240000   0.000000   0.000000
                            CHANNELS 3 Xrotation Yrotation Zrotation
                            End Site
                            {
                                OFFSET   0.116353  -0.002500   0.000000
                            }
                        }
                    }
                }
            }
        }
    }
    JOINT rHip
    {
        OFFSET  -0.100000  -0.051395   0.000000
        CHANNELS 3 Xrotation Yrotation Zrotation
        JOINT rKnee
        {
            OFFSET   0.000000  -0.410000   0.000000
            CHANNELS 3 Xrotation Yrotation Zrotation
            JOINT rAnkle
            {
                OFFSET   0.000000  -0.390000   0.000000
                CHANNELS 3 Xrotation Yrotation Zrotation
                JOINT rToeJoint
                {
                    OFFSET   0.000000  -0.050000   0.130000
                    CHANNELS 3 Xrotation Yrotation Zrotation
                    End Site
                    {
                        OFFSET  -0.010000   0.002000   0.060000
                    }
                }
            }
        }
    }
    JOINT lHip
    {
        OFFSET   0.100000  -0.051395   0.000000
        CHANNELS 3 Xrotation Yrotation Zrotation
        JOINT lKnee
        {
            OFFSET   0.000000  -0.410000   0.000000
            CHANNELS 3 Xrotation Yrotation Zrotation
            JOINT lAnkle
            {
                OFFSET   0.000000  -0.390000   0.000000
                CHANNELS 3 Xrotation Yrotation Zrotation
                JOINT lToeJoint
                {
                    OFFSET   0.000000  -0.050000   0.130000
                    CHANNELS 3 Xrotation Yrotation Zrotation
                    End Site
                    {
                        OFFSET   0.010000   0.002000   0.060000
                    }
                }
            }
        }
    }
}
MOTION
Frames: 14
Frame Time:   0.008333
 -2.238322   0.933457   4.969173  -2.073902   5.241658  -2.831356  14.409697  -4.425151   3.713128   3.731059  -4.119666   5.754263  -2.596721   0.507259   0.941531   5.271882  -2.142502  11.074079   6.359372   0.227288  39.490393   0.006414  39.380520  -0.003361   1.310008   2.466020 -11.806904   3.210806  -6.342461  -7.331497   3.877424 -12.083579 -44.854295  -0.014384 -50.894755   0.003908   1.991153  -6.621315   7.940803 -17.455862  -0.421961   7.404301  28.860638   0.001538   0.001814  19.442177  -5.327355  -1.231711 -41.569063  -0.027554  -0.046589   2.287183  -0.122188   4.961422  49.977466  -0.002225   0.000084   5.169110   4.089388  -1.023932 -21.808564  -0.025799   0.013344
 -2.237313   0.938834   4.980615  -2.304819   4.968138  -2.319845  14.179434  -3.945461   3.228724   3.751425  -4.115663   5.635195  -2.480717   0.448453   1.196002   5.194885  -1.931429  11.080068   6.131117   0.729795  39.638147   0.007296  40.128157  -0.005707   1.210387   2.077775 -11.813000   3.617662  -6.031198  -7.457919   4.767184 -11.714000 -44.967463  -0.014982 -49.644002   0.006094   2.065639  -6.846442   7.990858 -16.221261  -0.058805   6.962054  28.021753   0.001444   0.002821  21.166460  -5.217762  -1.367752 -44.824706  -0.024094  -0.042735   0.377558  -0.003028   4.458780  51.570884  -0.001514   0.000296   3.622433   4.564826  -0.655188 -20.746235  -0.023563   0.014496
 -2.236208   0.944154   4.991558  -2.497859   4.629934  -1.763669  14.023529  -3.417474   2.717269   3.767477  -4.045908   5.469305  -2.377710   0.383118   1.431721   5.053352  -1.659120  11.063896   5.861660   1.267299  39.774812   0.008114  40.875604  -0.008492   1.161589   1.934624 -11.822507   4.047961  -5.709876  -7.552821   5.647268 -11.325627 -45.057416  -0.015918 -48.427771   0.007483   2.113912  -6.826718   7.983839 -14.961316   0.329047   6.452107  26.996854   0.001358   0.004318  22.845821  -5.099512  -1.491619 -47.722668  -0.020791  -0.037687  -1.678662   0.124043   3.896129  52.955100  -0.001568  -0.000446   2.160933   4.998595  -0.296833 -19.835318  -0.021039   0.014146
 -2.235108   0.949875   5.001947  -2.704126   4.213560  -1.309811  13.988225  -2.819767   2.289500   3.824932  -3.884646   5.318411  -2.278335   0.322717   1.651224   4.856139  -1.328752  11.039031   5.559730   1.819658  39.882807   0.009106  41.592933  -0.011595   1.141399   1.922033 -11.862969   4.468853  -5.398378  -7.663881   6.485202 -10.946593 -45.148271  -0.017412 -47.272985   0.008023   2.141898  -6.673883   7.970123 -13.754932   0.700811   6.055540  26.052943   0.001452   0.005601  24.043012  -5.034484  -1.724802 -47.178241  -0.015855  -0.029714  -3.791665   0.238393   3.436652  54.153877  -0.002469  -0.001852   0.791027   5.395221   0.049347 -18.997951  -0.018823   0.012815
 -2.234004   0.955611   5.012136  -2.941824   3.759683  -0.863072  13.999876  -2.194794   1.855349   3.925572  -3.666354   5.158170  -2.169551   0.267206   1.856967   4.646071  -0.988379  11.002276   5.256431   2.360483  39.982658   0.009916  42.278256  -0.014383   1.141821   1.998174 -11.901076   4.891837  -5.078236  -7.758731   7.292072 -10.574410 -45.239262  -0.018388 -46.186392   0.008640   2.161037  -6.467524   7.926539 -12.538560   1.021619   5.610557  25.109045   0.001357   0.007309  25.367022  -4.833420  -1.650475 -46.742664  -0.013017  -0.024210  -5.890485   0.346790   3.000352  55.214258  -0.003616  -0.003225  -0.493651   5.757853   0.382150 -18.235217  -0.016834   0.011146
 -2.232898   0.961140   5.022299  -3.214907   3.320763  -0.406422  14.033753  -1.571784   1.414760   4.050410  -3.420979   4.983569  -2.057937   0.215977   2.046794   4.442310  -0.661742  10.953647   4.965759   2.872641  40.073234   0.010389  42.925282  -0.016561   1.152890   2.117593 -11.939843   5.313949  -4.750003  -7.837187   8.067829 -10.208423 -45.327609  -0.018542 -45.164546   0.009665   2.174409  -6.228696   7.864601 -11.312044   1.323271   5.136935  24.201443   0.001164   0.008479  26.727347  -4.634703  -1.592550 -46.394189  -0.010616  -0.019671  -7.946357   0.451012   2.587246  56.171460  -0.004628  -0.004116  -1.697555   6.089308   0.700427 -17.541476  -0.015011   0.009638
 -2.231731   0.966351   5.032516  -3.523133   2.940471   0.065388  14.077920  -0.971109   0.982323   4.186410  -3.170610   4.798280  -1.948497   0.168485   2.221092   4.252823  -0.359595  10.891147   4.693444   3.348011  40.150659   0.010543  43.530951  -0.018090   1.167449   2.247093 -11.989716   5.728711  -4.421369  -7.905853   8.808855  -9.853003 -45.414995  -0.017923 -44.204972   0.011082   2.183617  -5.969197   7.793350 -10.080827   1.625307   4.649713  23.356791   0.000914   0.008641  28.068933  -4.539611  -1.699080 -46.115403  -0.008239  -0.015691  -9.943708   0.552112   2.192966  57.043021  -0.005261  -0.004411  -2.825163   6.392368   1.003677 -16.909772  -0.013269   0.008509
 -2.230443   0.971457   5.041973  -3.477427   2.456937   0.623828  14.047914  -0.389450   0.477062   4.106279  -2.955052   4.531047  -1.861679   0.004924   2.389649   4.161609  -0.027835  10.827116   4.262799   3.812674  40.200755   0.011224  44.618684  -0.021751   1.129333   2.053824 -11.834345   6.247617  -4.067586  -7.938073   9.696212  -9.395410 -45.406425  -0.018103 -43.366930   0.009670   2.293284  -5.864327   7.695891  -9.259986   1.851747   3.984280  22.512668   0.000634   0.010174  29.430277  -4.247763  -1.563365 -45.892352  -0.006871  -0.012966 -12.245036   0.662809   1.663022  57.143060  -0.004478  -0.003759  -3.570406   6.665070   1.233894 -16.610799  -0.010948   0.006867
 -2.229099   0.976279   5.051094  -3.394388   1.943086   1.172452  14.084349   0.190924  -0.013682   4.032187  -2.710925   4.248641  -1.783518  -0.156793   2.543790   4.022393   0.323993  10.720761   3.814869   4.288595  40.229013   0.011695  45.677605  -0.025105   1.132925   2.077965 -11.727404   6.765164  -3.708813  -7.934269  10.555105  -8.938918 -45.389598  -0.018217 -42.571502   0.008054   2.400197  -5.727284   7.568283  -8.488765   2.049820   3.334840  21.635497   0.000541   0.011774  30.725699  -4.054475  -1.559216 -45.713900  -0.005506  -0.010748 -14.567922   0.773345   1.164876  57.011084  -0.003210  -0.002604  -4.274078   6.914975   1.452270 -16.313812  -0.009050   0.005390
 -2.227686   0.980738   5.060071  -3.323288   1.417727   1.702856  14.174036   0.774105  -0.483455   3.994679  -2.439618   3.965632  -1.702109  -0.308387   2.686273   3.862337   0.678067  10.586285   3.372192   4.751407  40.235089   0.012184  46.680051  -0.028034   1.157681   2.197745 -11.673231   7.265824  -3.354900  -7.916886  11.371983  -8.496040 -45.372834  -0.018084 -41.820835   0.006673   2.497985  -5.550856   7.436826  -7.726607   2.227367   2.695290  20.791410   0.000415   0.013009  31.955982  -3.887594  -1.555911 -45.571133  -0.004393  -0.008949 -16.852758   0.883598   0.715864  56.800747  -0.001905  -0.001404  -4.935916   7.145645   1.659103 -16.040334  -0.007494   0.004115
 -2.226208   0.984831   5.069012  -3.273594   0.894014   2.210000  14.300499   1.351961  -0.929655   3.990809  -2.151983   3.689249  -1.618076  -0.449222   2.819044   3.696974   1.022161  10.438523   2.945801   5.191764  40.227351   0.012723  47.621608  -0.030292   1.191513   2.353482 -11.655053   7.748081  -3.007759  -7.897848  12.146619  -8.069666 -45.361250  -0.017731 -41.113554   0.005578   2.587474  -5.345447   7.307101  -6.967359   2.387220   2.070324  20.004935   0.000242   0.013732  33.107128  -3.738390  -1.556322 -45.456915  -0.003493  -0.007453 -19.071675   0.992517   0.320513  56.561464  -0.000730  -0.000327  -5.556761   7.358989   1.854568 -15.791172  -0.006213   0.003050
 -2.224664   0.988581   5.077981  -3.244401   0.379731   2.691716  14.449666   1.916217  -1.351334   4.012554  -1.857779   3.423549  -1.533746  -0.579884   2.943015   3.535078   1.350113  10.288779   2.541321   5.606296  40.213543   0.013271  48.502677  -0.031756   1.228465   2.518753 -11.657019   8.211668  -2.668998  -7.883251  12.880241  -7.661499 -45.357876  -0.017204 -40.447917   0.004725   2.669876  -5.119503   7.177032  -6.211810   2.529700   1.461974  19.283354   0.000040   0.013972  34.180745  -3.606010  -1.560787 -45.365538  -0.002767  -0.006202 -21.208681   1.099822  -0.024447  56.312248   0.000259   0.000581  -6.138535   7.556506   2.038990 -15.565007  -0.005151   0.002182
 -2.223055   0.992019   5.087016  -3.231665  -0.120792   3.147200  14.610542   2.460712  -1.748257   4.052023  -1.564387   3.171076  -1.451058  -0.701161   3.058786   3.381531   1.659246  10.144705   2.161350   5.994365  40.199285   0.013768  49.325496  -0.032418   1.265531   2.681449 -11.667059   8.655846  -2.340489  -7.875802  13.573822  -7.272961 -45.363904  -0.016536 -39.822390   0.004055   2.746435  -4.880738   7.043911  -5.462564   2.655063   0.870704  18.626408  -0.000169   0.013819  35.183490  -3.489276  -1.568264 -45.292434  -0.002184  -0.005153 -23.254365   1.205737  -0.325239  56.062637   0.001044   0.001314  -6.683405   7.739471   2.212755 -15.360223  -0.004261   0.001486
 -2.221368   0.995100   5.095723  -3.070350  -0.661885   3.625432  14.793266   2.916402  -2.159418   3.961221  -1.223603   2.890833  -1.418305  -0.875741   3.068248   3.279363   1.950678   9.907358   1.798449   6.312531  40.160760   0.014991  50.698710  -0.037050   1.192724   2.564485 -11.441756   9.023408  -1.953171  -7.753398  14.330499  -6.817370 -45.381560  -0.014454 -39.426132   0.003573   2.813811  -4.654665   6.752158  -4.939921   2.676468   0.209207  18.102532  -0.000330   0.013846  36.003675  -3.188706  -1.577496 -45.233949  -0.001779  -0.004290 -25.229561   1.317843  -0.611277  55.047839   0.004613   0.004927  -6.454523   7.746861   2.289174 -15.344883  -0.003401   0.001159
